<svg width="73" height="72" viewBox="0 0 73 72" fill="none" xmlns="http://www.w3.org/2000/svg">
    <rect x="0.5" width="72" height="72" rx="36" fill="white"/>
    <g clip-path="url(#clip0_993_936)">
    <path d="M36.4029 35.7044C39.0034 35.7044 41.0259 33.5697 41.0259 30.9499C41.0259 28.3301 38.9071 26.2925 36.3066 26.2925C33.7062 26.2925 31.6836 28.4271 31.6836 30.9499C31.6836 33.5697 33.8025 35.7044 36.4029 35.7044ZM36.3066 28.2331C36.4029 28.2331 36.4029 28.2331 36.3066 28.2331C37.8476 28.2331 39.0997 29.4945 39.0997 31.047C39.0997 32.5994 37.8476 33.7638 36.3066 33.7638C34.7656 33.7638 33.6099 32.5024 33.6099 31.047C33.6099 29.4945 34.8619 28.2331 36.3066 28.2331Z" fill="#0D5C63"/>
    <path d="M50.6585 35.122C48.8286 33.4725 46.4208 32.5992 43.9166 32.6963H43.1461C42.9535 33.4725 42.6645 34.1517 42.2793 34.7339C42.8572 34.6369 43.3387 34.6369 43.9166 34.6369C45.7466 34.5398 47.5765 35.122 49.0212 36.1894V43.1755H50.9475V35.4131L50.6585 35.122Z" fill="#0D5C63"/>
    <path d="M41.7019 26.4859C42.1835 25.3215 43.5318 24.7394 44.7839 25.2245C45.9397 25.7097 46.5175 27.0681 46.036 28.3295C45.6507 29.2027 44.7839 29.7849 43.9171 29.7849C43.7245 29.7849 43.4355 29.7849 43.2429 29.6879C43.3392 30.173 43.3392 30.6582 43.3392 31.0463V31.6285C43.5318 31.6285 43.7245 31.7255 43.9171 31.7255C46.3249 31.7255 48.2512 29.7849 48.2512 27.4562C48.2512 25.0304 46.3249 23.0898 44.0134 23.0898C42.4724 23.0898 41.124 23.8661 40.3535 25.2245C40.8351 25.5156 41.3166 25.9037 41.7019 26.4859Z" fill="#0D5C63"/>
    <path d="M30.7209 34.8306C30.3356 34.2484 30.0467 33.5692 29.8541 32.793H29.0836C26.5794 32.6959 24.1716 33.5692 22.3417 35.1217L22.0527 35.4128V43.1752H23.979V36.189C25.52 35.1217 27.2536 34.5395 29.0836 34.6365C29.6615 34.6365 30.2393 34.7336 30.7209 34.8306Z" fill="#0D5C63"/>
    <path d="M29.0847 31.6291C29.2773 31.6291 29.4699 31.6291 29.6626 31.5321V30.9499C29.6626 30.4648 29.6626 29.9796 29.7589 29.5915C29.5663 29.6885 29.2773 29.6885 29.0847 29.6885C27.8326 29.6885 26.7732 28.6212 26.7732 27.3598C26.7732 26.0984 27.8326 25.0311 29.0847 25.0311C30.0478 25.0311 30.9146 25.6133 31.2999 26.4865C31.6851 26.0014 32.263 25.5162 32.7446 25.1281C31.4925 23.0905 28.8921 22.4113 26.8695 23.6727C24.8469 24.9341 24.1727 27.5539 25.4248 29.5915C26.1953 30.8529 27.5437 31.6291 29.0847 31.6291Z" fill="#0D5C63"/>
    <path d="M44.3013 40.9435L44.1087 40.6524C42.1824 38.5177 39.4857 37.2563 36.5963 37.3534C33.7069 37.2563 30.9138 38.5177 28.9875 40.6524L28.7949 40.9435V48.3178C28.7949 49.1911 29.4691 49.9673 30.4322 49.9673H42.7603C43.6271 49.9673 44.3976 49.1911 44.3976 48.3178V40.9435H44.3013ZM42.375 48.0267H30.7212V41.6227C32.2622 40.0702 34.3811 39.294 36.5963 39.294C38.7152 39.1969 40.834 40.0702 42.375 41.6227V48.0267Z" fill="#0D5C63"/>
    </g>
    <defs>
    <clipPath id="clip0_993_936">
    <rect width="32" height="26.353" fill="white" transform="translate(20.5 23)"/>
    </clipPath>
    </defs>
    </svg>
    