<svg width="72" height="72" viewBox="0 0 72 72" fill="none" xmlns="http://www.w3.org/2000/svg">
    <rect width="72" height="72" rx="36" fill="white"/>
    <g clip-path="url(#clip0_993_957)">
    <path d="M30.5431 42.6624C30.0024 42.1193 30.2843 42.2724 28.9801 41.9218C28.3884 41.7624 27.8682 41.4562 27.3978 41.0893L24.5748 48.0418C24.3016 48.7149 24.8119 49.4462 25.5349 49.4187L28.8134 49.2931L31.0683 51.6856C31.5661 52.2131 32.4397 52.0487 32.7128 51.3756L35.9515 43.3993C35.277 43.7768 34.5285 43.9981 33.7544 43.9981C32.5411 43.9981 31.4012 43.5237 30.5431 42.6624ZM48.3188 48.0418L45.4958 41.0893C45.0254 41.4568 44.5052 41.7624 43.9135 41.9218C42.6024 42.2743 42.8899 42.1206 42.3504 42.6624C41.4924 43.5237 40.3519 43.9981 39.1385 43.9981C38.3645 43.9981 37.6159 43.7762 36.9415 43.3993L40.1801 51.3756C40.4533 52.0487 41.3275 52.2131 41.8247 51.6856L44.0802 49.2931L47.3587 49.4187C48.0817 49.4462 48.5919 48.7143 48.3188 48.0418ZM40.8646 41.2481C41.8153 40.2762 41.9242 40.3599 43.2782 39.9893C44.1424 39.7524 44.8182 39.0618 45.0496 38.1781C45.5151 36.4031 45.3944 36.6174 46.6643 35.3187C47.2971 34.6718 47.5441 33.7287 47.3127 32.8449C46.8479 31.0712 46.8472 31.3187 47.3127 29.5431C47.5441 28.6593 47.2971 27.7162 46.6643 27.0693C45.3944 25.7706 45.5151 25.9843 45.0496 24.2099C44.8182 23.3262 44.1424 22.6356 43.2782 22.3987C41.5434 21.9231 41.7525 22.0474 40.4813 20.7481C39.8485 20.1012 38.9257 19.8481 38.0615 20.0849C36.3273 20.5599 36.5694 20.5606 34.8321 20.0849C33.9679 19.8481 33.0451 20.1006 32.4123 20.7481C31.1423 22.0468 31.3514 21.9231 29.616 22.3987C28.7518 22.6356 28.076 23.3262 27.8446 24.2099C27.3798 25.9843 27.4999 25.7706 26.2299 27.0693C25.5971 27.7162 25.3495 28.6593 25.5815 29.5431C26.0463 31.3156 26.047 31.0681 25.5815 32.8443C25.3501 33.7281 25.5971 34.6712 26.2299 35.3187C27.4999 36.6174 27.3791 36.4031 27.8446 38.1781C28.076 39.0618 28.7518 39.7524 29.616 39.9893C31.0086 40.3706 31.1125 40.3106 32.029 41.2481C32.8522 42.0899 34.1346 42.2406 35.1239 41.6118C35.5196 41.3595 35.9785 41.2256 36.4471 41.2256C36.9157 41.2256 37.3746 41.3595 37.7703 41.6118C38.759 42.2406 40.0414 42.0899 40.8646 41.2481ZM30.5767 30.9956C30.5767 27.6812 33.205 24.9943 36.4468 24.9943C39.6886 24.9943 42.3168 27.6812 42.3168 30.9956C42.3168 34.3099 39.6886 36.9968 36.4468 36.9968C33.205 36.9968 30.5767 34.3099 30.5767 30.9956Z" fill="#0D5C63"/>
    </g>
    <defs>
    <clipPath id="clip0_993_957">
    <rect width="23.8933" height="32" fill="white" transform="translate(24.5 20)"/>
    </clipPath>
    </defs>
    </svg>
    