<svg width="111" height="22" viewBox="0 0 111 22" fill="none" xmlns="http://www.w3.org/2000/svg">
    <g clip-path="url(#clip0_964_15465)">
    <path d="M20.6301 8.41256C20.5724 8.24274 20.4663 8.09353 20.3248 7.98335C20.1833 7.87316 20.0127 7.80681 19.8339 7.79251L14.6048 7.377L12.342 2.36798C12.2699 2.20665 12.1527 2.06963 12.0045 1.97344C11.8562 1.87726 11.6833 1.82602 11.5066 1.82593C11.33 1.82583 11.157 1.87687 11.0087 1.9729C10.8604 2.06892 10.743 2.20582 10.6707 2.36707L8.40793 7.377L3.17878 7.79251C3.00309 7.80642 2.83513 7.87066 2.69499 7.97754C2.55485 8.08442 2.44847 8.2294 2.38858 8.39516C2.32868 8.56091 2.31781 8.74041 2.35726 8.91218C2.3967 9.08395 2.4848 9.24072 2.61101 9.36373L6.47532 13.1308L5.10864 19.0488C5.06714 19.2279 5.08044 19.4154 5.14682 19.5869C5.21319 19.7584 5.32957 19.9059 5.48086 20.0105C5.63214 20.115 5.81135 20.1716 5.99523 20.173C6.1791 20.1744 6.35915 20.1205 6.51201 20.0183L11.5064 16.6888L16.5007 20.0183C16.6569 20.1221 16.8412 20.1755 17.0287 20.1713C17.2162 20.1672 17.3979 20.1058 17.5494 19.9953C17.701 19.8848 17.8151 19.7306 17.8763 19.5533C17.9376 19.3761 17.9431 19.1843 17.8921 19.0039L16.2145 13.1336L20.3751 9.38941C20.6475 9.14359 20.7475 8.76019 20.6301 8.41256Z" fill="#F3CD03"/>
    <path d="M42.6457 8.41256C42.5881 8.24274 42.4819 8.09353 42.3404 7.98335C42.199 7.87316 42.0283 7.80681 41.8495 7.79251L36.6204 7.377L34.3576 2.36798C34.2855 2.20665 34.1683 2.06963 34.0201 1.97344C33.8719 1.87726 33.699 1.82602 33.5223 1.82593C33.3456 1.82583 33.1726 1.87687 33.0243 1.9729C32.876 2.06892 32.7586 2.20582 32.6864 2.36707L30.4236 7.377L25.1944 7.79251C25.0187 7.80642 24.8508 7.87066 24.7106 7.97754C24.5705 8.08442 24.4641 8.2294 24.4042 8.39516C24.3443 8.56091 24.3334 8.74041 24.3729 8.91218C24.4123 9.08395 24.5004 9.24072 24.6266 9.36373L28.4909 13.1308L27.1243 19.0488C27.0828 19.2279 27.0961 19.4154 27.1624 19.5869C27.2288 19.7584 27.3452 19.9059 27.4965 20.0105C27.6478 20.115 27.827 20.1716 28.0109 20.173C28.1947 20.1744 28.3748 20.1205 28.5276 20.0183L33.522 16.6888L38.5163 20.0183C38.6726 20.1221 38.8568 20.1755 39.0443 20.1713C39.2318 20.1672 39.4135 20.1058 39.5651 19.9953C39.7166 19.8848 39.8307 19.7306 39.892 19.5533C39.9532 19.3761 39.9587 19.1843 39.9078 19.0039L38.2301 13.1336L42.3907 9.38941C42.6631 9.14359 42.7631 8.76019 42.6457 8.41256Z" fill="#F3CD03"/>
    <path d="M64.6555 8.41256C64.5978 8.24274 64.4917 8.09353 64.3502 7.98335C64.2087 7.87316 64.0381 7.80681 63.8593 7.79251L58.6302 7.377L56.3673 2.36798C56.2953 2.20665 56.1781 2.06963 56.0298 1.97344C55.8816 1.87726 55.7087 1.82602 55.532 1.82593C55.3553 1.82583 55.1824 1.87687 55.0341 1.9729C54.8857 2.06892 54.7684 2.20582 54.6961 2.36707L52.4333 7.377L47.2042 7.79251C47.0285 7.80642 46.8605 7.87066 46.7204 7.97754C46.5802 8.08442 46.4739 8.2294 46.414 8.39516C46.3541 8.56091 46.3432 8.74041 46.3826 8.91218C46.4221 9.08395 46.5102 9.24072 46.6364 9.36373L50.5007 13.1308L49.134 19.0488C49.0925 19.2279 49.1058 19.4154 49.1722 19.5869C49.2386 19.7584 49.355 19.9059 49.5062 20.0105C49.6575 20.115 49.8367 20.1716 50.0206 20.173C50.2045 20.1744 50.3845 20.1205 50.5374 20.0183L55.5317 16.6888L60.5261 20.0183C60.6823 20.1221 60.8666 20.1755 61.0541 20.1713C61.2416 20.1672 61.4233 20.1058 61.5748 19.9953C61.7264 19.8848 61.8405 19.7306 61.9017 19.5533C61.963 19.3761 61.9685 19.1843 61.9175 19.0039L60.2399 13.1336L64.4005 9.38941C64.6729 9.14359 64.7729 8.76019 64.6555 8.41256Z" fill="#F3CD03"/>
    <path d="M86.673 8.41256C86.6154 8.24274 86.5093 8.09353 86.3678 7.98335C86.2263 7.87316 86.0556 7.80681 85.8769 7.79251L80.6477 7.377L78.3849 2.36798C78.3129 2.20665 78.1956 2.06963 78.0474 1.97344C77.8992 1.87726 77.7263 1.82602 77.5496 1.82593C77.3729 1.82583 77.2 1.87687 77.0517 1.9729C76.9033 2.06892 76.786 2.20582 76.7137 2.36707L74.4509 7.377L69.2217 7.79251C69.0461 7.80642 68.8781 7.87066 68.738 7.97754C68.5978 8.08442 68.4914 8.2294 68.4315 8.39516C68.3717 8.56091 68.3608 8.74041 68.4002 8.91218C68.4397 9.08395 68.5278 9.24072 68.654 9.36373L72.5183 13.1308L71.1516 19.0488C71.1101 19.2279 71.1234 19.4154 71.1898 19.5869C71.2562 19.7584 71.3725 19.9059 71.5238 20.0105C71.6751 20.115 71.8543 20.1716 72.0382 20.173C72.2221 20.1744 72.4021 20.1205 72.555 20.0183L77.5493 16.6888L82.5437 20.0183C82.6999 20.1221 82.8842 20.1755 83.0716 20.1713C83.2591 20.1672 83.4409 20.1058 83.5924 19.9953C83.744 19.8848 83.858 19.7306 83.9193 19.5533C83.9806 19.3761 83.9861 19.1843 83.9351 19.0039L82.2575 13.1336L86.4181 9.38941C86.6905 9.14359 86.7905 8.76019 86.673 8.41256Z" fill="#F3CD03"/>
    <path d="M94.5329 13.1308L93.1662 19.0488C93.1239 19.228 93.1366 19.4158 93.2027 19.5877C93.2687 19.7596 93.3851 19.9075 93.5366 20.0122C93.688 20.1169 93.8675 20.1735 94.0517 20.1746C94.2358 20.1757 94.416 20.1212 94.5687 20.0183L99.563 16.6888L104.557 20.0183C104.714 20.1221 104.898 20.1755 105.085 20.1714C105.273 20.1673 105.455 20.1058 105.606 19.9953C105.758 19.8849 105.872 19.7306 105.933 19.5534C105.994 19.3761 106 19.1844 105.949 19.0039L104.271 13.1336L108.432 9.38944C108.565 9.26946 108.66 9.11304 108.705 8.93955C108.751 8.76605 108.744 8.58308 108.687 8.41327C108.629 8.24345 108.523 8.09424 108.381 7.98408C108.24 7.87392 108.069 7.80764 107.891 7.79345L102.661 7.37703L100.399 2.36801C100.326 2.20672 100.209 2.06976 100.061 1.97366C99.9126 1.87755 99.7397 1.82642 99.563 1.82642C99.3863 1.82642 99.2134 1.87755 99.0651 1.97366C98.9168 2.06976 98.7995 2.20672 98.7274 2.36801L96.4646 7.37703L91.2354 7.79254C91.0597 7.80645 90.8918 7.87069 90.7516 7.97757C90.6115 8.08445 90.5051 8.22943 90.4452 8.39518C90.3853 8.56094 90.3744 8.74044 90.4139 8.91221C90.4533 9.08398 90.5414 9.24074 90.6677 9.36376L94.5329 13.1308ZM97.1497 9.16288C97.3135 9.14998 97.4707 9.09328 97.605 8.99871C97.7392 8.90414 97.8456 8.77519 97.9129 8.62538L99.563 4.97387L101.213 8.62538C101.28 8.77519 101.387 8.90414 101.521 8.99871C101.655 9.09328 101.813 9.14998 101.976 9.16288L105.619 9.45181L102.619 12.1521C102.359 12.387 102.255 12.7484 102.35 13.0859L103.5 17.108L100.073 14.8231C99.9226 14.7222 99.7455 14.6683 99.5644 14.6683C99.3832 14.6683 99.2062 14.7222 99.0558 14.8231L95.4749 17.2107L96.438 13.0409C96.4733 12.8876 96.4685 12.7277 96.4242 12.5767C96.3799 12.4257 96.2974 12.2887 96.1848 12.1787L93.3983 9.4619L97.1497 9.16288Z" fill="#F3CD03"/>
    </g>
    <defs>
    <clipPath id="clip0_964_15465">
    <rect width="110.068" height="22" fill="white" transform="translate(0.5)"/>
    </clipPath>
    </defs>
    </svg>
    